# Blender v2.61 (sub 0) OBJ File: 'box.blend'
# www.blender.org
v 44.999996 0.000000 -45.000000
v 44.999996 0.000000 44.999996
v -45.000004 0.000000 44.999992
v -44.999985 0.000000 -45.000015
v 45.000023 100.000000 -44.999973
v -45.000000 100.000000 -45.000000
v -45.000015 100.000000 44.999985
v 44.999966 100.000000 45.000031
v 50.000000 5.000000 -44.999996
v 50.000019 95.000000 -44.999973
v 49.999969 95.000000 45.000031
v 49.999996 5.000000 45.000000
v 44.999996 5.000000 50.000000
v 44.999966 95.000000 50.000023
v -45.000015 95.000000 49.999985
v -45.000004 5.000000 49.999992
v -50.000008 5.000000 44.999989
v -50.000019 95.000000 44.999981
v -49.999996 95.000000 -45.000000
v -49.999985 5.000000 -45.000015
v 45.000023 95.000000 -49.999977
v 45.000000 5.000000 -49.999996
v -44.999981 5.000000 -50.000019
v -44.999996 95.000000 -50.000000
vn 0.000000 -1.000000 0.000000
vn 0.000000 1.000000 -0.000000
vn 1.000000 0.000000 0.000000
vn -0.000000 -0.000000 1.000000
vn -1.000000 -0.000000 -0.000000
vn 0.000000 0.000000 -1.000000
vn 0.707107 -0.707107 0.000000
vn -0.000000 -0.707107 0.707107
vn 0.000000 -0.707107 -0.707107
vn -0.707107 -0.707107 -0.000000
vn 0.000000 0.707107 -0.707107
vn -0.707107 0.707107 -0.000000
vn 0.707107 0.707107 0.000000
vn -0.000000 0.707106 0.707107
vn 0.707107 0.000000 -0.707106
vn 0.707106 0.000000 0.707107
vn -0.707107 -0.000000 0.707107
vn -0.707107 0.000000 -0.707107
vn 0.577350 -0.577350 -0.577350
vn 0.577350 -0.577351 0.577350
vn -0.577350 -0.577350 0.577350
vn -0.577350 -0.577350 -0.577350
vn 0.577351 0.577350 -0.577350
vn 0.577350 0.577350 0.577351
vn -0.577350 0.577350 0.577350
vn -0.577350 0.577350 -0.577350
s off
f 1//1 2//1 3//1 4//1
f 7//2 8//2 5//2 6//2
f 11//3 12//3 9//3 10//3
f 15//4 16//4 13//4 14//4
f 19//5 20//5 17//5 18//5
f 23//6 24//6 21//6 22//6
f 1//7 9//7 12//7 2//7
f 16//8 3//8 2//8 13//8
f 22//9 1//9 4//9 23//9
f 20//10 4//10 3//10 17//10
f 24//11 6//11 5//11 21//11
f 6//12 19//12 18//12 7//12
f 8//13 11//13 10//13 5//13
f 7//14 15//14 14//14 8//14
f 21//15 10//15 9//15 22//15
f 11//16 14//16 13//16 12//16
f 15//17 18//17 17//17 16//17
f 19//18 24//18 23//18 20//18
f 1//19 22//19 9//19
f 2//20 12//20 13//20
f 3//21 16//21 17//21
f 4//22 20//22 23//22
f 5//23 10//23 21//23
f 8//24 14//24 11//24
f 7//25 18//25 15//25
f 6//26 24//26 19//26
